<svg preserveAspectRatio="none" overflow="visible" style="display: block;" width="16" height="22" viewBox="0 0 16 22" fill="none" xmlns="http://www.w3.org/2000/svg">
<path id="Vector" d="M0.00416552 8.0567C0.00416552 3.60544 3.58657 0 8.00208 0C12.4176 0 16 3.60544 16 8.0567C16 13.153 10.993 19.2617 8.90185 21.5899C8.41031 22.1367 7.58969 22.1367 7.09815 21.5899C5.00703 19.2617 0 13.153 0 8.0567H0.00416552ZM8.00208 10.9359C9.47253 10.9359 10.6681 9.7099 10.6681 8.20194C10.6681 6.69398 9.47253 5.46796 8.00208 5.46796C6.53163 5.46796 5.33611 6.69398 5.33611 8.20194C5.33611 9.7099 6.53163 10.9359 8.00208 10.9359Z" fill="#9F9C99"/>
</svg>
